<svg xmlns="http://www.w3.org/2000/svg" viewBox="0 0 1200 800" fill="none">
  <rect width="1200" height="800" fill="#f5f3f0"/>
  <rect x="0" y="520" width="1200" height="280" fill="#e8e2db"/>
  <!-- Terraced housing -->
  <rect x="150" y="320" width="200" height="200" fill="#d4ccc2"/>
  <rect x="350" y="280" width="180" height="240" fill="#e8e2db" stroke="#c4b5a5" stroke-width="0.5"/>
  <rect x="530" y="350" width="160" height="170" fill="#d4ccc2"/>
  <rect x="690" y="300" width="190" height="220" fill="#e8e2db" stroke="#c4b5a5" stroke-width="0.5"/>
  <rect x="880" y="340" width="170" height="180" fill="#d4ccc2"/>
  <!-- Garden plots -->
  <g fill="#8b8680" opacity="0.12">
    <rect x="200" y="530" width="80" height="50" rx="2"/>
    <rect x="320" y="530" width="80" height="50" rx="2"/>
    <rect x="440" y="530" width="80" height="50" rx="2"/>
    <rect x="560" y="530" width="80" height="50" rx="2"/>
    <rect x="680" y="530" width="80" height="50" rx="2"/>
    <rect x="800" y="530" width="80" height="50" rx="2"/>
    <rect x="920" y="530" width="80" height="50" rx="2"/>
  </g>
  <!-- Windows -->
  <g fill="#f5f3f0" opacity="0.7">
    <rect x="170" y="340" width="30" height="40"/><rect x="220" y="340" width="30" height="40"/><rect x="270" y="340" width="30" height="40"/>
    <rect x="370" y="300" width="25" height="35"/><rect x="410" y="300" width="25" height="35"/><rect x="450" y="300" width="25" height="35"/>
    <rect x="550" y="370" width="25" height="35"/><rect x="590" y="370" width="25" height="35"/>
    <rect x="710" y="320" width="30" height="40"/><rect x="760" y="320" width="30" height="40"/><rect x="810" y="320" width="30" height="40"/>
  </g>
  <text x="600" y="720" font-family="system-ui" font-size="14" fill="#8b8680" text-anchor="middle" letter-spacing="3">ELEVATION VIEW</text>
  <text x="600" y="745" font-family="system-ui" font-size="11" fill="#c4b5a5" text-anchor="middle" letter-spacing="2">HOUSING &amp; URBAN AGRICULTURE</text>
</svg>
