<svg xmlns="http://www.w3.org/2000/svg" viewBox="0 0 1200 800" fill="none">
  <rect width="1200" height="800" fill="#f5f3f0"/>
  <!-- Grid -->
  <g stroke="#e8e2db" stroke-width="0.3">
    <line x1="100" y1="100" x2="100" y2="700"/><line x1="300" y1="100" x2="300" y2="700"/>
    <line x1="500" y1="100" x2="500" y2="700"/><line x1="700" y1="100" x2="700" y2="700"/>
    <line x1="900" y1="100" x2="900" y2="700"/><line x1="1100" y1="100" x2="1100" y2="700"/>
    <line x1="100" y1="100" x2="1100" y2="100"/><line x1="100" y1="300" x2="1100" y2="300"/>
    <line x1="100" y1="500" x2="1100" y2="500"/><line x1="100" y1="700" x2="1100" y2="700"/>
  </g>
  <!-- Floor plan -->
  <rect x="150" y="150" width="350" height="180" stroke="#8b8680" stroke-width="1.5" fill="none"/>
  <rect x="600" y="150" width="400" height="180" stroke="#8b8680" stroke-width="1.5" fill="none"/>
  <rect x="150" y="380" width="200" height="200" stroke="#8b8680" stroke-width="1.5" fill="none"/>
  <rect x="400" y="380" width="300" height="200" stroke="#8b8680" stroke-width="1.5" fill="none"/>
  <rect x="750" y="380" width="250" height="200" stroke="#8b8680" stroke-width="1.5" fill="none"/>
  <!-- Bridge connection -->
  <rect x="500" y="270" width="100" height="110" fill="#d4a574" opacity="0.1" stroke="#d4a574" stroke-width="1"/>
  <!-- Room labels -->
  <text x="325" y="250" font-family="system-ui" font-size="9" fill="#c4b5a5" text-anchor="middle">COMMUNITY ROOM</text>
  <text x="800" y="250" font-family="system-ui" font-size="9" fill="#c4b5a5" text-anchor="middle">DAYCARE</text>
  <text x="250" y="490" font-family="system-ui" font-size="9" fill="#c4b5a5" text-anchor="middle">CLINIC</text>
  <text x="550" y="490" font-family="system-ui" font-size="9" fill="#c4b5a5" text-anchor="middle">SHARED GARDEN</text>
  <text x="875" y="490" font-family="system-ui" font-size="9" fill="#c4b5a5" text-anchor="middle">LOBBY</text>
  <text x="600" y="740" font-family="system-ui" font-size="14" fill="#8b8680" text-anchor="middle" letter-spacing="3">GROUND FLOOR PLAN</text>
  <text x="600" y="765" font-family="system-ui" font-size="11" fill="#c4b5a5" text-anchor="middle" letter-spacing="2">SKYBRIDGE TERRACE — 1:200</text>
</svg>
