<svg xmlns="http://www.w3.org/2000/svg" viewBox="0 0 1200 800" fill="none">
  <rect width="1200" height="800" fill="#f5f3f0"/>
  <!-- Diagram: housing + agriculture integration -->
  <g stroke="#e8e2db" stroke-width="0.5">
    <line x1="100" y1="400" x2="1100" y2="400"/>
  </g>
  <!-- Housing blocks -->
  <rect x="150" y="200" width="120" height="200" fill="#d4ccc2" rx="2"/>
  <rect x="350" y="250" width="100" height="150" fill="#d4ccc2" rx="2"/>
  <rect x="550" y="220" width="130" height="180" fill="#d4ccc2" rx="2"/>
  <rect x="780" y="240" width="110" height="160" fill="#d4ccc2" rx="2"/>
  <rect x="980" y="260" width="90" height="140" fill="#d4ccc2" rx="2"/>
  <!-- Garden areas below -->
  <rect x="150" y="430" width="120" height="80" fill="#8b8680" opacity="0.1" rx="2"/>
  <rect x="350" y="430" width="100" height="80" fill="#8b8680" opacity="0.15" rx="2"/>
  <rect x="550" y="430" width="130" height="80" fill="#8b8680" opacity="0.1" rx="2"/>
  <rect x="780" y="430" width="110" height="80" fill="#8b8680" opacity="0.15" rx="2"/>
  <rect x="980" y="430" width="90" height="80" fill="#8b8680" opacity="0.1" rx="2"/>
  <!-- Connections -->
  <g stroke="#d4a574" stroke-width="1" stroke-dasharray="4,4">
    <line x1="210" y1="400" x2="210" y2="430"/>
    <line x1="400" y1="400" x2="400" y2="430"/>
    <line x1="615" y1="400" x2="615" y2="430"/>
    <line x1="835" y1="400" x2="835" y2="430"/>
    <line x1="1025" y1="400" x2="1025" y2="430"/>
  </g>
  <!-- Labels -->
  <text x="210" y="190" font-family="system-ui" font-size="8" fill="#8b8680" text-anchor="middle">BLOCK A</text>
  <text x="400" y="240" font-family="system-ui" font-size="8" fill="#8b8680" text-anchor="middle">BLOCK B</text>
  <text x="615" y="210" font-family="system-ui" font-size="8" fill="#8b8680" text-anchor="middle">BLOCK C</text>
  <text x="835" y="230" font-family="system-ui" font-size="8" fill="#8b8680" text-anchor="middle">BLOCK D</text>
  <text x="1025" y="250" font-family="system-ui" font-size="8" fill="#8b8680" text-anchor="middle">BLOCK E</text>
  <text x="210" y="540" font-family="system-ui" font-size="8" fill="#8b8680" text-anchor="middle">PLOT 1</text>
  <text x="400" y="540" font-family="system-ui" font-size="8" fill="#8b8680" text-anchor="middle">PLOT 2</text>
  <text x="615" y="540" font-family="system-ui" font-size="8" fill="#8b8680" text-anchor="middle">PLOT 3</text>
  <text x="835" y="540" font-family="system-ui" font-size="8" fill="#8b8680" text-anchor="middle">PLOT 4</text>
  <text x="1025" y="540" font-family="system-ui" font-size="8" fill="#8b8680" text-anchor="middle">PLOT 5</text>
  <text x="600" y="720" font-family="system-ui" font-size="14" fill="#8b8680" text-anchor="middle" letter-spacing="3">PROGRAM DIAGRAM</text>
  <text x="600" y="745" font-family="system-ui" font-size="11" fill="#c4b5a5" text-anchor="middle" letter-spacing="2">GROUND PLANE — DETROIT, MI</text>
</svg>
