<svg xmlns="http://www.w3.org/2000/svg" viewBox="0 0 1200 800" fill="none">
  <rect width="1200" height="800" fill="#f5f3f0"/>
  <!-- Grid -->
  <g stroke="#e8e2db" stroke-width="0.3">
    <line x1="100" y1="80" x2="100" y2="720"/><line x1="200" y1="80" x2="200" y2="720"/>
    <line x1="300" y1="80" x2="300" y2="720"/><line x1="400" y1="80" x2="400" y2="720"/>
    <line x1="500" y1="80" x2="500" y2="720"/><line x1="600" y1="80" x2="600" y2="720"/>
    <line x1="700" y1="80" x2="700" y2="720"/><line x1="800" y1="80" x2="800" y2="720"/>
    <line x1="900" y1="80" x2="900" y2="720"/><line x1="1000" y1="80" x2="1000" y2="720"/>
    <line x1="1100" y1="80" x2="1100" y2="720"/>
  </g>
  <!-- Plan outline -->
  <path d="M 200 150 L 500 150 L 500 300 L 700 300 L 700 150 L 1000 150 L 1000 600 L 700 600 L 700 450 L 500 450 L 500 600 L 200 600 Z"
        fill="none" stroke="#8b8680" stroke-width="1.5"/>
  <!-- Rooms -->
  <rect x="220" y="170" width="260" height="120" fill="#d4a574" opacity="0.08"/>
  <rect x="720" y="170" width="260" height="120" fill="#d4a574" opacity="0.08"/>
  <rect x="220" y="460" width="260" height="120" fill="#e8e2db" opacity="0.5"/>
  <rect x="720" y="460" width="260" height="120" fill="#e8e2db" opacity="0.5"/>
  <!-- Central atrium -->
  <rect x="500" y="300" width="200" height="150" fill="#d4a574" opacity="0.1"/>
  <circle cx="600" cy="375" r="40" fill="none" stroke="#c4b5a5" stroke-width="0.5" stroke-dasharray="4,4"/>
  <text x="600" y="720" font-family="system-ui" font-size="14" fill="#8b8680" text-anchor="middle" letter-spacing="3">GROUND FLOOR PLAN</text>
  <text x="600" y="745" font-family="system-ui" font-size="11" fill="#c4b5a5" text-anchor="middle" letter-spacing="2">CIVIC WEAVE — 1:200</text>
</svg>
