<svg xmlns="http://www.w3.org/2000/svg" viewBox="0 0 1200 800" fill="none">
  <rect width="1200" height="800" fill="#f5f3f0"/>
  <rect x="0" y="500" width="1200" height="300" fill="#e8e2db"/>
  <!-- Mill building - adaptive reuse -->
  <rect x="150" y="200" width="900" height="300" fill="#d4ccc2" stroke="#8b8680" stroke-width="1"/>
  <!-- Sawtooth roof -->
  <polygon points="150,200 250,150 350,200 450,150 550,200 650,150 750,200 850,150 950,200 1050,150 1050,200" fill="#d4ccc2" stroke="#8b8680" stroke-width="0.5"/>
  <!-- Industrial windows (large) -->
  <g fill="#f5f3f0" opacity="0.5" stroke="#c4b5a5" stroke-width="0.5">
    <rect x="180" y="250" width="80" height="120"/>
    <rect x="290" y="250" width="80" height="120"/>
    <rect x="400" y="250" width="80" height="120"/>
    <rect x="510" y="250" width="80" height="120"/>
    <rect x="620" y="250" width="80" height="120"/>
    <rect x="730" y="250" width="80" height="120"/>
    <rect x="840" y="250" width="80" height="120"/>
    <rect x="950" y="250" width="80" height="120"/>
  </g>
  <!-- New insertion (accent) -->
  <rect x="350" y="400" width="200" height="100" fill="#d4a574" opacity="0.3" stroke="#d4a574" stroke-width="1"/>
  <rect x="650" y="400" width="150" height="100" fill="#d4a574" opacity="0.2" stroke="#d4a574" stroke-width="1"/>
  <!-- Smokestack -->
  <rect x="1000" y="100" width="30" height="400" fill="#c4b5a5"/>
  <text x="600" y="720" font-family="system-ui" font-size="14" fill="#8b8680" text-anchor="middle" letter-spacing="3">NORTH ELEVATION</text>
  <text x="600" y="745" font-family="system-ui" font-size="11" fill="#c4b5a5" text-anchor="middle" letter-spacing="2">URBAN LOOM — LOWELL, MA</text>
</svg>
