<svg xmlns="http://www.w3.org/2000/svg" viewBox="0 0 1200 800" fill="none">
  <rect width="1200" height="800" fill="#f5f3f0"/>
  <!-- Street grid -->
  <g fill="#e8e2db">
    <rect x="100" y="80" width="1000" height="60"/>
    <rect x="100" y="660" width="1000" height="60"/>
    <rect x="80" y="100" width="60" height="600"/>
    <rect x="1060" y="100" width="60" height="600"/>
    <rect x="560" y="100" width="80" height="600"/>
  </g>
  <!-- City blocks -->
  <g fill="#d4ccc2" stroke="#c4b5a5" stroke-width="0.5">
    <rect x="160" y="160" width="380" height="220" rx="2"/>
    <rect x="660" y="160" width="380" height="220" rx="2"/>
    <rect x="160" y="420" width="380" height="220" rx="2"/>
    <rect x="660" y="420" width="380" height="220" rx="2"/>
  </g>
  <!-- Alley corridors (the intervention) -->
  <rect x="160" y="280" width="380" height="20" fill="#d4a574" opacity="0.5"/>
  <rect x="660" y="280" width="380" height="20" fill="#d4a574" opacity="0.5"/>
  <rect x="160" y="540" width="380" height="20" fill="#d4a574" opacity="0.5"/>
  <rect x="660" y="540" width="380" height="20" fill="#d4a574" opacity="0.5"/>
  <!-- Vertical alleys -->
  <rect x="340" y="160" width="15" height="500" fill="#d4a574" opacity="0.3"/>
  <rect x="840" y="160" width="15" height="500" fill="#d4a574" opacity="0.3"/>
  <!-- Housing modules along alleys -->
  <g fill="#d4a574" opacity="0.7">
    <rect x="200" y="275" width="25" height="30" rx="1"/>
    <rect x="240" y="275" width="25" height="30" rx="1"/>
    <rect x="280" y="275" width="25" height="30" rx="1"/>
    <rect x="380" y="275" width="25" height="30" rx="1"/>
    <rect x="420" y="275" width="25" height="30" rx="1"/>
    <rect x="460" y="275" width="25" height="30" rx="1"/>
    <rect x="700" y="275" width="25" height="30" rx="1"/>
    <rect x="740" y="275" width="25" height="30" rx="1"/>
    <rect x="780" y="275" width="25" height="30" rx="1"/>
    <rect x="880" y="275" width="25" height="30" rx="1"/>
    <rect x="920" y="275" width="25" height="30" rx="1"/>
  </g>
  <!-- Green spaces -->
  <circle cx="330" cy="210" r="15" fill="#8b8680" opacity="0.15"/>
  <circle cx="500" cy="200" r="18" fill="#8b8680" opacity="0.12"/>
  <circle cx="730" cy="480" r="20" fill="#8b8680" opacity="0.15"/>
  <circle cx="950" cy="460" r="16" fill="#8b8680" opacity="0.12"/>
  <!-- North arrow -->
  <polygon points="1100,120 1095,145 1100,140 1105,145" fill="#8b8680"/>
  <text x="1100" y="155" font-family="system-ui" font-size="9" fill="#8b8680" text-anchor="middle">N</text>
  <!-- Legend -->
  <rect x="120" y="710" width="15" height="10" fill="#d4ccc2"/>
  <text x="145" y="719" font-family="system-ui" font-size="8" fill="#8b8680">Existing</text>
  <rect x="220" y="710" width="15" height="10" fill="#d4a574" opacity="0.5"/>
  <text x="245" y="719" font-family="system-ui" font-size="8" fill="#8b8680">Alley Intervention</text>
  <rect x="380" y="710" width="15" height="10" fill="#d4a574" opacity="0.7"/>
  <text x="405" y="719" font-family="system-ui" font-size="8" fill="#8b8680">Housing Modules</text>
  <!-- Title -->
  <text x="600" y="755" font-family="system-ui" font-size="14" fill="#8b8680" text-anchor="middle" letter-spacing="3">SITE PLAN</text>
  <text x="600" y="778" font-family="system-ui" font-size="11" fill="#c4b5a5" text-anchor="middle" letter-spacing="2">NEIGHBORHOOD SCALE — 1:2000</text>
</svg>
