<svg xmlns="http://www.w3.org/2000/svg" viewBox="0 0 1200 800" fill="none">
  <rect width="1200" height="800" fill="#f5f3f0"/>
  <!-- Grid -->
  <g stroke="#e8e2db" stroke-width="0.5">
    <line x1="100" y1="100" x2="100" y2="700"/><line x1="200" y1="100" x2="200" y2="700"/>
    <line x1="300" y1="100" x2="300" y2="700"/><line x1="400" y1="100" x2="400" y2="700"/>
    <line x1="500" y1="100" x2="500" y2="700"/><line x1="600" y1="100" x2="600" y2="700"/>
    <line x1="700" y1="100" x2="700" y2="700"/><line x1="800" y1="100" x2="800" y2="700"/>
    <line x1="900" y1="100" x2="900" y2="700"/><line x1="1000" y1="100" x2="1000" y2="700"/>
    <line x1="1100" y1="100" x2="1100" y2="700"/>
    <line x1="100" y1="100" x2="1100" y2="100"/><line x1="100" y1="200" x2="1100" y2="200"/>
    <line x1="100" y1="300" x2="1100" y2="300"/><line x1="100" y1="400" x2="1100" y2="400"/>
    <line x1="100" y1="500" x2="1100" y2="500"/><line x1="100" y1="600" x2="1100" y2="600"/>
    <line x1="100" y1="700" x2="1100" y2="700"/>
  </g>
  <!-- Room outlines -->
  <rect x="150" y="150" width="250" height="200" stroke="#8b8680" stroke-width="1.5" fill="none"/>
  <rect x="150" y="350" width="250" height="180" stroke="#8b8680" stroke-width="1.5" fill="none"/>
  <rect x="400" y="150" width="200" height="380" stroke="#8b8680" stroke-width="1.5" fill="none"/>
  <rect x="600" y="150" width="180" height="200" stroke="#8b8680" stroke-width="1.5" fill="none"/>
  <rect x="600" y="350" width="180" height="180" stroke="#8b8680" stroke-width="1.5" fill="none"/>
  <rect x="780" y="150" width="220" height="380" stroke="#8b8680" stroke-width="1.5" fill="none"/>
  <!-- Accent rooms -->
  <rect x="420" y="200" width="80" height="100" fill="#d4a574" opacity="0.15"/>
  <rect x="820" y="200" width="80" height="100" fill="#d4a574" opacity="0.15"/>
  <!-- Door openings -->
  <line x1="250" y1="350" x2="300" y2="350" stroke="#f5f3f0" stroke-width="4"/>
  <line x1="500" y1="300" x2="500" y2="350" stroke="#f5f3f0" stroke-width="4"/>
  <line x1="600" y1="250" x2="600" y2="300" stroke="#f5f3f0" stroke-width="4"/>
  <line x1="780" y1="300" x2="780" y2="350" stroke="#f5f3f0" stroke-width="4"/>
  <!-- Door arcs -->
  <path d="M 250 350 Q 275 330 300 350" stroke="#c4b5a5" stroke-width="0.5" fill="none"/>
  <path d="M 500 300 Q 520 325 500 350" stroke="#c4b5a5" stroke-width="0.5" fill="none"/>
  <!-- Room labels -->
  <text x="275" y="260" font-family="system-ui" font-size="9" fill="#c4b5a5" text-anchor="middle">LIVING</text>
  <text x="275" y="440" font-family="system-ui" font-size="9" fill="#c4b5a5" text-anchor="middle">BEDROOM</text>
  <text x="500" y="340" font-family="system-ui" font-size="9" fill="#c4b5a5" text-anchor="middle">KITCHEN</text>
  <text x="690" y="260" font-family="system-ui" font-size="9" fill="#c4b5a5" text-anchor="middle">BATH</text>
  <text x="690" y="440" font-family="system-ui" font-size="9" fill="#c4b5a5" text-anchor="middle">BEDROOM</text>
  <text x="890" y="340" font-family="system-ui" font-size="9" fill="#c4b5a5" text-anchor="middle">COMMUNITY</text>
  <!-- Scale bar -->
  <line x1="150" y1="650" x2="350" y2="650" stroke="#8b8680" stroke-width="1"/>
  <line x1="150" y1="645" x2="150" y2="655" stroke="#8b8680" stroke-width="1"/>
  <line x1="350" y1="645" x2="350" y2="655" stroke="#8b8680" stroke-width="1"/>
  <text x="250" y="670" font-family="system-ui" font-size="9" fill="#8b8680" text-anchor="middle">10 FT</text>
  <!-- Title -->
  <text x="600" y="740" font-family="system-ui" font-size="14" fill="#8b8680" text-anchor="middle" letter-spacing="3">FLOOR PLAN</text>
  <text x="600" y="765" font-family="system-ui" font-size="11" fill="#c4b5a5" text-anchor="middle" letter-spacing="2">TYPICAL UNIT — 1:50</text>
</svg>
