<svg xmlns="http://www.w3.org/2000/svg" viewBox="0 0 1200 800" fill="none">
  <rect width="1200" height="800" fill="#f5f3f0"/>
  <!-- Ground plane -->
  <rect x="0" y="500" width="1200" height="300" fill="#e8e2db"/>
  <!-- Alley perspective lines -->
  <line x1="300" y1="500" x2="600" y2="300" stroke="#c4b5a5" stroke-width="1"/>
  <line x1="900" y1="500" x2="600" y2="300" stroke="#c4b5a5" stroke-width="1"/>
  <!-- Buildings left -->
  <rect x="100" y="200" width="200" height="300" fill="#d4ccc2" stroke="#8b8680" stroke-width="0.5"/>
  <rect x="120" y="220" width="40" height="50" fill="#f5f3f0" opacity="0.7"/>
  <rect x="180" y="220" width="40" height="50" fill="#f5f3f0" opacity="0.7"/>
  <rect x="240" y="220" width="40" height="50" fill="#f5f3f0" opacity="0.7"/>
  <rect x="120" y="290" width="40" height="50" fill="#f5f3f0" opacity="0.7"/>
  <rect x="180" y="290" width="40" height="50" fill="#f5f3f0" opacity="0.7"/>
  <rect x="240" y="290" width="40" height="50" fill="#f5f3f0" opacity="0.7"/>
  <rect x="120" y="360" width="40" height="50" fill="#f5f3f0" opacity="0.7"/>
  <rect x="180" y="360" width="40" height="50" fill="#f5f3f0" opacity="0.7"/>
  <rect x="240" y="360" width="40" height="50" fill="#f5f3f0" opacity="0.7"/>
  <!-- Buildings right -->
  <rect x="850" y="250" width="220" height="250" fill="#d4ccc2" stroke="#8b8680" stroke-width="0.5"/>
  <rect x="870" y="270" width="40" height="50" fill="#f5f3f0" opacity="0.7"/>
  <rect x="930" y="270" width="40" height="50" fill="#f5f3f0" opacity="0.7"/>
  <rect x="990" y="270" width="40" height="50" fill="#f5f3f0" opacity="0.7"/>
  <rect x="870" y="340" width="40" height="50" fill="#f5f3f0" opacity="0.7"/>
  <rect x="930" y="340" width="40" height="50" fill="#f5f3f0" opacity="0.7"/>
  <rect x="990" y="340" width="40" height="50" fill="#f5f3f0" opacity="0.7"/>
  <!-- Central housing modules (the alley intervention) -->
  <rect x="450" y="320" width="120" height="180" fill="#d4a574" opacity="0.6" rx="2"/>
  <rect x="590" y="350" width="100" height="150" fill="#d4a574" opacity="0.5" rx="2"/>
  <rect x="470" y="340" width="30" height="40" fill="#f5f3f0" opacity="0.8"/>
  <rect x="520" y="340" width="30" height="40" fill="#f5f3f0" opacity="0.8"/>
  <rect x="470" y="400" width="30" height="40" fill="#f5f3f0" opacity="0.8"/>
  <rect x="520" y="400" width="30" height="40" fill="#f5f3f0" opacity="0.8"/>
  <rect x="610" y="370" width="25" height="35" fill="#f5f3f0" opacity="0.8"/>
  <rect x="650" y="370" width="25" height="35" fill="#f5f3f0" opacity="0.8"/>
  <!-- Trees/greenery -->
  <circle cx="380" cy="470" r="25" fill="#8b8680" opacity="0.3"/>
  <circle cx="750" cy="460" r="30" fill="#8b8680" opacity="0.25"/>
  <circle cx="420" cy="480" r="20" fill="#8b8680" opacity="0.2"/>
  <!-- Pathway -->
  <rect x="400" y="500" width="300" height="15" fill="#c4b5a5" opacity="0.5" rx="1"/>
  <!-- Label -->
  <text x="600" y="720" font-family="system-ui, sans-serif" font-size="14" fill="#8b8680" text-anchor="middle" letter-spacing="3">PERSPECTIVE RENDERING</text>
  <text x="600" y="750" font-family="system-ui, sans-serif" font-size="11" fill="#c4b5a5" text-anchor="middle" letter-spacing="2">RE: ALLEY — DENVER, CO</text>
</svg>
